# xmcd
#
# Track frame offsets:
#	150
#	8513
#	24288
#	41554
#	56365
#	76597
#	102527
#	125282
#	142414
#	161970
#	186353
#	205090
#	214164
#	233292
#	253233
#
# Disc length: 3558 seconds
#
# Revision: 0
# Processed by: cddbd v1.4PL0 Copyright (c) Steve Scherf et al.
# Submitted via: dBpowerAMP V4.0
#
DISCID=c60de40f
DTITLE=Alicia Keys - Songs in A minor 
DYEAR=2001
DGENRE=R&B
TTITLE0=Piano and I
TTITLE1=Girlfriend
TTITLE2=How come you don't call me
TTITLE3=Fallin
TTITLE4=Troubles
TTITLE5=Rock Wit u 
TTITLE6=A woman's worth
TTITLE7=Jane Doe
TTITLE8=Goodbye
TTITLE9=The Life
TTITLE10=Mr man
TTITLE11=Never felt this way 
TTITLE12=Butterflies
TTITLE13=Why do i feel so sad?
TTITLE14=Caged Bird
EXTD=
EXTT0=
EXTT1=
EXTT2=
EXTT3=
EXTT4=
EXTT5=
EXTT6=
EXTT7=
EXTT8=
EXTT9=
EXTT10=
EXTT11=
EXTT12=
EXTT13=
EXTT14=
PLAYORDER=
